<svg width="460" height="90" viewBox="-20 -20 440 70">
<rect x="0" y="0" width="10" height="10" fill="black" />
<rect x="10" y="0" width="10" height="10" fill="black" />
<rect x="10" y="10" width="10" height="10" fill="white" />
<rect x="20" y="10" width="10" height="10" fill="black" />
<rect x="20" y="0" width="10" height="10" fill="white" />
<rect x="30" y="0" width="10" height="10" fill="white" />
<rect x="30" y="10" width="10" height="10" fill="black" />
<rect x="40" y="10" width="10" height="10" fill="white" />
<rect x="40" y="0" width="10" height="10" fill="black" />
<rect x="50" y="0" width="10" height="10" fill="black" />
<rect x="50" y="10" width="10" height="10" fill="black" />
<rect x="60" y="10" width="10" height="10" fill="white" />
<rect x="60" y="0" width="10" height="10" fill="white" />
<rect x="70" y="0" width="10" height="10" fill="white" />
<rect x="70" y="10" width="10" height="10" fill="black" />
<rect x="80" y="10" width="10" height="10" fill="black" />
<rect x="80" y="0" width="10" height="10" fill="white" />
<rect x="90" y="0" width="10" height="10" fill="black" />
<rect x="90" y="10" width="10" height="10" fill="white" />
<rect x="100" y="10" width="10" height="10" fill="black" />
<rect x="100" y="0" width="10" height="10" fill="black" />
<rect x="110" y="0" width="10" height="10" fill="white" />
<rect x="110" y="10" width="10" height="10" fill="white" />
<rect x="120" y="10" width="10" height="10" fill="black" />
<rect x="120" y="0" width="10" height="10" fill="black" />
<rect x="130" y="0" width="10" height="10" fill="black" />
<rect x="130" y="10" width="10" height="10" fill="black" />
<rect x="140" y="10" width="10" height="10" fill="white" />
<rect x="140" y="0" width="10" height="10" fill="white" />
<rect x="150" y="0" width="10" height="10" fill="black" />
<rect x="150" y="10" width="10" height="10" fill="black" />
<rect x="160" y="10" width="10" height="10" fill="white" />
<rect x="160" y="0" width="10" height="10" fill="black" />
<rect x="170" y="0" width="10" height="10" fill="white" />
<rect x="170" y="10" width="10" height="10" fill="black" />
<rect x="180" y="10" width="10" height="10" fill="black" />
<rect x="180" y="0" width="10" height="10" fill="white" />
<rect x="190" y="0" width="10" height="10" fill="black" />
<rect x="190" y="10" width="10" height="10" fill="white" />
<rect x="200" y="10" width="10" height="10" fill="black" />
<rect x="200" y="0" width="10" height="10" fill="black" />
<rect x="210" y="0" width="10" height="10" fill="white" />
<rect x="210" y="10" width="10" height="10" fill="white" />
<rect x="220" y="10" width="10" height="10" fill="black" />
<rect x="220" y="0" width="10" height="10" fill="black" />
<rect x="230" y="0" width="10" height="10" fill="black" />
<rect x="230" y="10" width="10" height="10" fill="black" />
<rect x="240" y="10" width="10" height="10" fill="white" />
<rect x="240" y="0" width="10" height="10" fill="white" />
<rect x="250" y="0" width="10" height="10" fill="black" />
<rect x="250" y="10" width="10" height="10" fill="black" />
<rect x="260" y="10" width="10" height="10" fill="white" />
<rect x="260" y="0" width="10" height="10" fill="white" />
<rect x="270" y="0" width="10" height="10" fill="white" />
<rect x="270" y="10" width="10" height="10" fill="black" />
<rect x="280" y="10" width="10" height="10" fill="black" />
<rect x="280" y="0" width="10" height="10" fill="white" />
<rect x="290" y="0" width="10" height="10" fill="black" />
<rect x="290" y="10" width="10" height="10" fill="white" />
<rect x="300" y="10" width="10" height="10" fill="black" />
<rect x="300" y="0" width="10" height="10" fill="black" />
<rect x="310" y="0" width="10" height="10" fill="white" />
<rect x="310" y="10" width="10" height="10" fill="white" />
<rect x="320" y="10" width="10" height="10" fill="black" />
<rect x="320" y="0" width="10" height="10" fill="white" />
<rect x="330" y="0" width="10" height="10" fill="white" />
<rect x="330" y="10" width="10" height="10" fill="black" />
<rect x="340" y="10" width="10" height="10" fill="black" />
<rect x="340" y="0" width="10" height="10" fill="white" />
<rect x="350" y="0" width="10" height="10" fill="black" />
<rect x="350" y="10" width="10" height="10" fill="black" />
<rect x="360" y="10" width="10" height="10" fill="white" />
<rect x="360" y="0" width="10" height="10" fill="white" />
<rect x="370" y="0" width="10" height="10" fill="black" />
<rect x="370" y="10" width="10" height="10" fill="black" />
<rect x="380" y="10" width="10" height="10" fill="black" />
<rect x="380" y="0" width="10" height="10" fill="black" />
<rect x="390" y="0" width="10" height="10" fill="white" />
<rect x="390" y="10" width="10" height="10" fill="white" />
<rect x="400" y="10" width="10" height="10" fill="black" />
<rect x="400" y="0" width="10" height="10" fill="black" />
<rect x="410" y="0" width="10" height="10" fill="black" />
<rect x="410" y="10" width="10" height="10" fill="black" />
<rect x="420" y="10" width="10" height="10" fill="black" />
<rect x="420" y="20" width="10" height="10" fill="black" />
<rect x="410" y="20" width="10" height="10" fill="black" />
<rect x="410" y="30" width="10" height="10" fill="black" />
<rect x="400" y="30" width="10" height="10" fill="black" />
<rect x="400" y="20" width="10" height="10" fill="black" />
<rect x="390" y="20" width="10" height="10" fill="white" />
<rect x="390" y="30" width="10" height="10" fill="white" />
<rect x="380" y="30" width="10" height="10" fill="black" />
<rect x="380" y="20" width="10" height="10" fill="white" />
<rect x="370" y="20" width="10" height="10" fill="white" />
<rect x="370" y="30" width="10" height="10" fill="black" />
<rect x="360" y="30" width="10" height="10" fill="white" />
<rect x="360" y="20" width="10" height="10" fill="white" />
<rect x="350" y="20" width="10" height="10" fill="black" />
<rect x="350" y="30" width="10" height="10" fill="black" />
<rect x="340" y="30" width="10" height="10" fill="black" />
<rect x="340" y="20" width="10" height="10" fill="black" />
<rect x="330" y="20" width="10" height="10" fill="white" />
<rect x="330" y="30" width="10" height="10" fill="black" />
<rect x="320" y="30" width="10" height="10" fill="black" />
<rect x="320" y="20" width="10" height="10" fill="white" />
<rect x="310" y="20" width="10" height="10" fill="white" />
<rect x="310" y="30" width="10" height="10" fill="white" />
<rect x="300" y="30" width="10" height="10" fill="black" />
<rect x="300" y="20" width="10" height="10" fill="black" />
<rect x="290" y="20" width="10" height="10" fill="white" />
<rect x="290" y="30" width="10" height="10" fill="black" />
<rect x="280" y="30" width="10" height="10" fill="white" />
<rect x="280" y="20" width="10" height="10" fill="black" />
<rect x="270" y="20" width="10" height="10" fill="black" />
<rect x="270" y="30" width="10" height="10" fill="white" />
<rect x="260" y="30" width="10" height="10" fill="white" />
<rect x="260" y="20" width="10" height="10" fill="white" />
<rect x="250" y="20" width="10" height="10" fill="black" />
<rect x="250" y="30" width="10" height="10" fill="black" />
<rect x="240" y="30" width="10" height="10" fill="white" />
<rect x="240" y="20" width="10" height="10" fill="white" />
<rect x="230" y="20" width="10" height="10" fill="black" />
<rect x="230" y="30" width="10" height="10" fill="black" />
<rect x="220" y="30" width="10" height="10" fill="black" />
<rect x="220" y="20" width="10" height="10" fill="black" />
<rect x="210" y="20" width="10" height="10" fill="white" />
<rect x="210" y="30" width="10" height="10" fill="white" />
<rect x="200" y="30" width="10" height="10" fill="black" />
<rect x="200" y="20" width="10" height="10" fill="black" />
<rect x="190" y="20" width="10" height="10" fill="black" />
<rect x="190" y="30" width="10" height="10" fill="white" />
<rect x="180" y="30" width="10" height="10" fill="white" />
<rect x="180" y="20" width="10" height="10" fill="black" />
<rect x="170" y="20" width="10" height="10" fill="black" />
<rect x="170" y="30" width="10" height="10" fill="black" />
<rect x="160" y="30" width="10" height="10" fill="white" />
<rect x="160" y="20" width="10" height="10" fill="white" />
<rect x="150" y="20" width="10" height="10" fill="black" />
<rect x="150" y="30" width="10" height="10" fill="black" />
<rect x="140" y="30" width="10" height="10" fill="white" />
<rect x="140" y="20" width="10" height="10" fill="white" />
<rect x="130" y="20" width="10" height="10" fill="black" />
<rect x="130" y="30" width="10" height="10" fill="black" />
<rect x="120" y="30" width="10" height="10" fill="black" />
<rect x="120" y="20" width="10" height="10" fill="black" />
<rect x="110" y="20" width="10" height="10" fill="white" />
<rect x="110" y="30" width="10" height="10" fill="white" />
<rect x="100" y="30" width="10" height="10" fill="black" />
<rect x="100" y="20" width="10" height="10" fill="black" />
<rect x="90" y="20" width="10" height="10" fill="white" />
<rect x="90" y="30" width="10" height="10" fill="black" />
<rect x="80" y="30" width="10" height="10" fill="white" />
<rect x="80" y="20" width="10" height="10" fill="black" />
<rect x="70" y="20" width="10" height="10" fill="black" />
<rect x="70" y="30" width="10" height="10" fill="white" />
<rect x="60" y="30" width="10" height="10" fill="white" />
<rect x="60" y="20" width="10" height="10" fill="white" />
<rect x="50" y="20" width="10" height="10" fill="black" />
<rect x="50" y="30" width="10" height="10" fill="black" />
<rect x="40" y="30" width="10" height="10" fill="white" />
<rect x="40" y="20" width="10" height="10" fill="white" />
<rect x="30" y="20" width="10" height="10" fill="black" />
<rect x="30" y="30" width="10" height="10" fill="white" />
<rect x="20" y="30" width="10" height="10" fill="white" />
<rect x="20" y="20" width="10" height="10" fill="black" />
<rect x="10" y="20" width="10" height="10" fill="white" />
<rect x="10" y="30" width="10" height="10" fill="white" />
<rect x="0" y="30" width="10" height="10" fill="black" />
<rect x="0" y="40" width="10" height="10" fill="black" />
<rect x="10" y="40" width="10" height="10" fill="white" />
<rect x="10" y="50" width="10" height="10" fill="white" />
<rect x="20" y="50" width="10" height="10" fill="black" />
<rect x="20" y="40" width="10" height="10" fill="black" />
<rect x="30" y="40" width="10" height="10" fill="black" />
<rect x="30" y="50" width="10" height="10" fill="black" />
<rect x="40" y="50" width="10" height="10" fill="white" />
<rect x="40" y="40" width="10" height="10" fill="white" />
<rect x="50" y="40" width="10" height="10" fill="black" />
<rect x="50" y="50" width="10" height="10" fill="black" />
<rect x="60" y="50" width="10" height="10" fill="white" />
<rect x="60" y="40" width="10" height="10" fill="white" />
<rect x="70" y="40" width="10" height="10" fill="black" />
<rect x="70" y="50" width="10" height="10" fill="black" />
<rect x="80" y="50" width="10" height="10" fill="black" />
<rect x="80" y="40" width="10" height="10" fill="black" />
<rect x="90" y="40" width="10" height="10" fill="black" />
<rect x="90" y="50" width="10" height="10" fill="black" />
<rect x="100" y="50" width="10" height="10" fill="black" />
<rect x="100" y="40" width="10" height="10" fill="black" />
<rect x="110" y="40" width="10" height="10" fill="white" />
<rect x="110" y="50" width="10" height="10" fill="black" />
<rect x="120" y="50" width="10" height="10" fill="white" />
<rect x="120" y="40" width="10" height="10" fill="black" />
<rect x="130" y="40" width="10" height="10" fill="black" />
<rect x="130" y="50" width="10" height="10" fill="white" />
<rect x="140" y="50" width="10" height="10" fill="black" />
<rect x="140" y="40" width="10" height="10" fill="white" />
<rect x="150" y="40" width="10" height="10" fill="black" />
<rect x="150" y="50" width="10" height="10" fill="black" />
<rect x="160" y="50" width="10" height="10" fill="black" />
<rect x="160" y="40" width="10" height="10" fill="white" />
<rect x="170" y="40" width="10" height="10" fill="black" />
<rect x="170" y="50" width="10" height="10" fill="white" />
<rect x="180" y="50" width="10" height="10" fill="white" />
<rect x="180" y="40" width="10" height="10" fill="black" />
<rect x="190" y="40" width="10" height="10" fill="white" />
<rect x="190" y="50" width="10" height="10" fill="white" />
<rect x="200" y="50" width="10" height="10" fill="black" />
<rect x="200" y="40" width="10" height="10" fill="black" />
<rect x="210" y="40" width="10" height="10" fill="white" />
<rect x="210" y="50" width="10" height="10" fill="black" />
<rect x="220" y="50" width="10" height="10" fill="white" />
<rect x="220" y="40" width="10" height="10" fill="black" />
<rect x="230" y="40" width="10" height="10" fill="black" />
<rect x="230" y="50" width="10" height="10" fill="white" />
<rect x="240" y="50" width="10" height="10" fill="black" />
<rect x="240" y="40" width="10" height="10" fill="white" />
<rect x="250" y="40" width="10" height="10" fill="black" />
<rect x="250" y="50" width="10" height="10" fill="black" />
<rect x="260" y="50" width="10" height="10" fill="white" />
<rect x="260" y="40" width="10" height="10" fill="white" />
<rect x="270" y="40" width="10" height="10" fill="black" />
<rect x="270" y="50" width="10" height="10" fill="black" />
<rect x="280" y="50" width="10" height="10" fill="black" />
<rect x="280" y="40" width="10" height="10" fill="white" />
<rect x="290" y="40" width="10" height="10" fill="black" />
<rect x="290" y="50" width="10" height="10" fill="white" />
<rect x="300" y="50" width="10" height="10" fill="black" />
<rect x="300" y="40" width="10" height="10" fill="black" />
<rect x="310" y="40" width="10" height="10" fill="white" />
<rect x="310" y="50" width="10" height="10" fill="white" />
<rect x="320" y="50" width="10" height="10" fill="black" />
<rect x="320" y="40" width="10" height="10" fill="black" />
<rect x="330" y="40" width="10" height="10" fill="black" />
<rect x="330" y="50" width="10" height="10" fill="black" />
<rect x="340" y="50" width="10" height="10" fill="black" />
<rect x="340" y="40" width="10" height="10" fill="black" />
<rect x="350" y="40" width="10" height="10" fill="black" />
<rect x="350" y="50" width="10" height="10" fill="black" />
<rect x="360" y="50" width="10" height="10" fill="white" />
<rect x="360" y="40" width="10" height="10" fill="white" />
<rect x="370" y="40" width="10" height="10" fill="black" />
<rect x="370" y="50" width="10" height="10" fill="black" />
<rect x="380" y="50" width="10" height="10" fill="black" />
<rect x="380" y="40" width="10" height="10" fill="black" />
<rect x="390" y="40" width="10" height="10" fill="white" />
<rect x="390" y="50" width="10" height="10" fill="white" />
<rect x="400" y="50" width="10" height="10" fill="black" />
<rect x="400" y="40" width="10" height="10" fill="black" />
</svg>
